# Created by FreeCAD <http://www.freecadweb.org>
v -0.500000 0.000000 0.688191
v 0.809017 0.000000 -0.262866
v 0.500000 0.000000 0.688191
v 0.000000 0.000000 -0.850651
v -0.809017 0.000000 -0.262866
v 0.500000 1.000000 0.688191
v -0.500000 1.000000 0.688191
v -0.809017 1.000000 -0.262866
v 0.000000 1.000000 -0.850651
v 0.809017 1.000000 -0.262866
vn 0.000000 -1.000000 0.000000
vn 0.000000 -1.000000 0.000000
vn 0.000000 -1.000000 0.000000
vn 0.000000 0.000000 1.000000
vn 0.000000 0.000000 1.000000
vn -0.951057 0.000000 0.309017
vn -0.951057 0.000000 0.309017
vn -0.587785 -0.000000 -0.809017
vn -0.587785 0.000000 -0.809017
vn 0.587785 0.000000 -0.809017
vn 0.587785 0.000000 -0.809017
vn 0.951057 0.000000 0.309017
vn 0.951057 0.000000 0.309017
vn 0.000000 1.000000 0.000000
vn 0.000000 1.000000 0.000000
vn 0.000000 1.000000 0.000000
f 1//1 2//1 3//1
f 4//2 2//2 5//2
f 5//3 2//3 1//3
f 6//4 1//4 3//4
f 6//5 7//5 1//5
f 7//6 5//6 1//6
f 7//7 8//7 5//7
f 8//8 4//8 5//8
f 8//9 9//9 4//9
f 9//10 2//10 4//10
f 9//11 10//11 2//11
f 10//12 3//12 2//12
f 10//13 6//13 3//13
f 10//14 7//14 6//14
f 10//15 8//15 7//15
f 10//16 9//16 8//16
