# Apple ModelIO OBJ File: pyramid
mtllib pyramid.mtl
g 
v 0.087523 19.753 -0.049868
v 9.7623 0.2284 9.7623
v 9.7623 0.2284 -9.7623
v 0.103744 19.753 0.014135
v 0.081274 19.753 -0.105197
v -9.7623 0.2284 -9.7623
v -9.7623 0.2284 9.7623
v 0.122396 19.753 0.000215
vn 0.8962 0.4437 0.0007
vn -0.8926 0.4509 0.0019
vn 0 -1 0
vn 0.0023 0.4481 0.894
vn 0.0055 0.4455 -0.8953
vt 0 1
vt 0 0
vt 1 0
vt 1 1
usemtl material_1
f 1/1/1 2/2/1 3/3/1 4/4/1 
f 5/1/2 6/2/2 7/3/2 8/4/2 
f 5/1/3 8/2/3 1/3/3 4/4/3 
f 7/1/3 6/2/3 3/3/3 2/4/3 
f 8/1/4 7/2/4 2/3/4 1/4/4 
f 4/1/5 3/2/5 6/3/5 5/4/5 
s off
