# Apple ModelIO OBJ File: triangularPrism
mtllib triangularPrism.mtl
g 
v 4.5973 -0.00039959 -2.654
v 0 -0.00039959 5.3088
v -4.5973 -0.00039959 -2.654
v 0 9.6964 5.3088
v -4.5973 9.6964 -2.654
v 4.5973 9.6964 -2.654
vn 0 -1 0
vn -0.866 -0 0.5
vn 0.866 0 0.5
vn -0 -0 -1
vn -0 1 -0
vt 0.4167 0
vt 0.0833 0
vt -0.25 0
vt 0.0833 1
vt -0.25 1
vt 0.4167 1
vt 0.75 0
vt 0.75 1
vt 0.3333 1
usemtl material_1
f 1/1/1 2/2/1 3/3/1 
f 3/3/2 2/2/2 4/4/2 5/5/2 
f 2/2/3 1/1/3 6/6/3 4/4/3 
f 1/1/4 3/7/4 5/8/4 6/6/4 
f 6/6/5 5/8/5 4/9/5 
s off
